<?xml version="1.0" standalone="no"?>
<!DOCTYPE svg PUBLIC "-//W3C//DTD SVG 20010904//EN"
 "http://www.w3.org/TR/2001/REC-SVG-20010904/DTD/svg10.dtd">
<svg version="1.0" xmlns="http://www.w3.org/2000/svg"
 width="600.000000pt" height="600.000000pt" viewBox="0 0 600.000000 600.000000"
 preserveAspectRatio="xMidYMid meet">
<metadata>
Created by potrace 1.14, written by Peter Selinger 2001-2017
</metadata>
<g transform="translate(0.000000,600.000000) scale(0.100000,-0.100000)"
fill="#000000" stroke="none">
<path d="M2910 3884 c-41 -19 -71 -44 -65 -54 4 -7 14 -334 17 -543 0 -58 4
-70 22 -82 21 -14 101 -15 122 -2 7 4 10 37 9 89 -4 129 3 135 61 52 27 -39
66 -89 86 -113 l37 -43 54 25 c80 36 85 53 36 113 -22 27 -52 61 -67 75 -38
37 -62 68 -62 78 0 5 -7 11 -15 15 -27 10 -16 37 38 89 62 60 91 102 82 116
-3 6 -27 25 -53 42 -26 18 -51 37 -57 44 -19 23 -157 106 -183 110 -15 2 -43
-3 -62 -11z m143 -194 c14 -11 31 -20 39 -20 7 0 -7 -18 -32 -40 -24 -21 -46
-37 -48 -35 -4 3 -6 88 -3 110 2 10 19 4 44 -15z"/>
<path d="M3834 3886 c-12 -8 -53 -48 -91 -88 -168 -174 -169 -176 -104 -225
20 -15 38 -31 39 -35 2 -4 10 -8 18 -8 8 0 22 -8 32 -18 10 -10 34 -28 55 -41
20 -12 37 -26 37 -31 0 -5 -38 -48 -85 -95 -46 -48 -85 -97 -87 -108 -2 -16 7
-27 37 -44 22 -12 45 -23 52 -23 14 0 94 78 130 129 15 20 32 41 38 46 6 6 30
36 54 68 29 40 40 64 36 77 -3 11 -43 45 -88 77 -85 60 -117 88 -117 101 0 4
34 42 75 85 41 42 75 81 75 86 0 12 -40 51 -51 51 -4 0 -13 2 -21 5 -7 3 -23
-1 -34 -9z"/>
<path d="M1255 3877 c-66 -20 -65 -16 -59 -146 2 -65 6 -212 8 -325 2 -114 8
-212 13 -217 5 -5 31 -12 56 -14 38 -4 51 -1 67 15 18 18 19 31 16 150 -2 111
-1 128 11 118 8 -6 41 -37 74 -68 l60 -57 4 -68 c4 -87 6 -89 93 -86 46 1 89
32 75 54 -4 7 -8 41 -9 77 -10 392 -16 536 -24 544 -5 5 -31 10 -58 11 -27 1
-53 5 -59 8 -6 4 -18 0 -27 -8 -12 -13 -15 -31 -10 -88 l5 -72 -66 70 c-37 39
-74 80 -82 93 -17 24 -29 26 -88 9z"/>
<path d="M2220 3883 c-13 -4 -149 -197 -159 -227 -2 -6 -7 -13 -10 -16 -13
-10 -51 -88 -51 -103 0 -9 32 -63 70 -121 39 -57 70 -109 70 -115 0 -6 5 -11
10 -11 6 0 10 -6 10 -12 0 -7 15 -30 33 -51 33 -39 42 -42 128 -38 26 1 61 48
125 170 13 24 34 58 47 75 13 17 32 47 44 67 l21 37 -62 93 c-34 52 -68 110
-76 129 -17 42 -59 112 -73 121 -11 8 -103 9 -127 2z m96 -243 c19 -36 45 -83
59 -106 l24 -40 -41 -65 c-22 -35 -44 -68 -48 -73 -5 -4 -18 10 -29 32 -11 22
-36 57 -56 77 -19 21 -35 42 -35 47 0 6 -9 21 -20 35 -22 29 -20 36 47 141 41
64 39 65 99 -48z"/>
<path d="M4421 3859 c-23 -16 -45 -29 -51 -29 -22 0 -26 -50 -24 -324 2 -317
0 -309 66 -320 30 -5 41 -3 58 14 11 11 20 26 20 34 0 11 21 5 80 -21 89 -40
113 -38 140 11 21 40 8 53 -113 115 l-107 55 0 54 c0 52 0 52 23 40 38 -22 89
-37 104 -31 7 3 23 23 34 45 25 48 17 60 -49 82 -26 9 -62 25 -80 36 -30 19
-33 24 -31 65 2 25 4 45 5 45 3 0 98 -41 120 -52 33 -16 66 -6 85 27 28 47 23
67 -19 91 -20 12 -50 24 -65 28 -16 4 -50 17 -76 30 -77 37 -77 37 -120 5z"/>
<path d="M5117 2858 c-14 -18 -42 -60 -63 -93 -22 -33 -41 -62 -45 -65 -10
-10 -99 -163 -99 -171 0 -5 -3 -9 -7 -9 -5 0 -13 -10 -19 -23 -6 -12 -21 -40
-33 -63 l-22 -41 63 -124 c35 -68 66 -126 69 -129 4 -3 10 -16 14 -30 4 -14
23 -49 41 -78 19 -29 34 -56 34 -60 0 -5 10 -18 23 -30 20 -19 33 -21 85 -19
35 2 67 8 73 14 6 6 11 105 14 251 2 133 6 245 9 251 4 6 -2 19 -13 30 -27 27
-118 26 -132 -1 -6 -11 -10 -72 -10 -136 l1 -117 -45 80 c-24 44 -45 87 -45
96 0 8 -5 20 -12 27 -8 8 -4 21 18 53 33 48 36 52 86 134 21 33 42 65 48 72 5
7 10 15 10 18 0 9 44 69 57 77 15 10 6 42 -18 64 -10 9 -19 23 -19 29 0 11
-21 25 -35 25 -2 0 -15 -15 -28 -32z"/>
<path d="M2467 2869 c-21 -3 -43 -11 -49 -17 -6 -6 -10 -74 -10 -180 l-1 -170
-53 -20 c-30 -11 -56 -17 -58 -13 -3 4 -5 61 -5 127 0 65 0 149 -1 186 l0 67
-47 8 c-100 16 -121 2 -117 -74 15 -275 18 -455 11 -670 -5 -119 -3 -164 6
-171 18 -15 135 -12 148 4 7 9 12 77 13 191 l1 178 48 24 c27 13 51 21 54 18
2 -3 5 -95 4 -205 0 -227 -7 -211 87 -219 48 -4 53 -2 62 21 11 30 14 253 4
391 -7 108 -8 241 -3 400 2 55 0 105 -4 111 -9 16 -45 21 -90 13z"/>
<path d="M3057 2865 c-15 -7 -34 -40 -58 -100 -20 -50 -64 -148 -97 -219 -39
-80 -59 -133 -53 -140 5 -6 12 -22 16 -36 4 -14 16 -43 26 -65 37 -82 83 -210
80 -224 -1 -8 1 -17 6 -20 4 -3 22 -33 38 -66 l30 -60 58 0 c61 0 87 16 100
60 8 29 63 162 91 220 56 117 76 167 76 193 0 15 -24 77 -53 137 -56 114 -66
137 -112 245 -15 36 -31 69 -36 74 -12 14 -86 14 -112 1z m58 -262 c10 -27 36
-86 58 -133 36 -78 39 -88 29 -125 -15 -54 -70 -175 -81 -175 -5 0 -14 21 -21
48 -8 26 -17 49 -21 52 -9 6 -36 76 -55 145 -13 45 -12 53 5 90 10 22 29 64
41 93 12 28 24 52 25 52 1 0 10 -21 20 -47z"/>
<path d="M3632 2869 c-11 -4 -23 -16 -25 -26 -7 -24 -2 -902 5 -908 6 -6 37
-8 89 -6 24 1 50 11 75 31 48 38 192 130 203 130 4 0 12 10 18 23 8 17 7 30
-4 50 -25 49 -49 49 -128 -1 -38 -25 -73 -50 -77 -56 -4 -6 -10 -7 -14 -4 -9
10 -10 410 -1 590 l7 147 -24 17 c-28 18 -92 25 -124 13z"/>
<path d="M4321 2865 c-5 -5 -12 -21 -16 -35 -13 -45 -53 -143 -98 -240 -56
-118 -78 -184 -70 -207 3 -10 17 -42 29 -71 13 -29 24 -56 24 -61 0 -4 18 -50
41 -102 22 -52 50 -119 61 -149 28 -75 32 -78 86 -78 53 -1 87 17 97 50 10 30
104 257 118 283 6 11 12 29 14 40 2 10 10 29 17 40 30 45 26 78 -21 176 -41
86 -79 180 -88 219 -2 8 -9 29 -16 45 -7 17 -12 33 -11 36 0 3 -9 18 -21 33
-19 23 -30 27 -80 29 -32 2 -62 -2 -66 -8z m114 -370 c30 -77 55 -147 55 -156
0 -9 -14 -47 -31 -85 -17 -37 -35 -80 -41 -94 l-10 -25 -15 35 c-8 19 -36 96
-62 170 l-47 135 37 75 c21 41 38 82 39 90 1 30 21 -10 75 -145z"/>
<path d="M60 2850 c-19 -11 -38 -21 -43 -23 -10 -3 -11 -118 -2 -267 4 -58 8
-225 8 -372 1 -146 5 -270 10 -274 14 -14 138 -8 148 7 5 8 7 118 4 252 -4
159 -2 237 5 237 5 0 10 -4 10 -10 0 -17 84 -9 106 11 l20 19 1 -251 c1 -148
6 -256 11 -261 13 -13 116 -12 140 1 16 9 18 24 15 173 -6 385 -6 694 0 714
10 30 -22 54 -81 61 -45 4 -52 3 -65 -18 -9 -13 -17 -46 -18 -74 -2 -36 -12
-63 -33 -96 -38 -58 -28 -68 -141 146 -25 47 -46 52 -95 25z"/>
<path d="M1523 2795 c-108 -71 -118 -81 -113 -114 3 -25 55 -81 74 -81 11 0
34 11 52 25 l32 25 4 -58 c2 -31 3 -191 2 -354 -1 -236 1 -300 12 -309 20 -16
102 -13 129 5 23 15 31 35 25 61 -1 6 -4 157 -6 337 l-3 327 48 -35 c27 -19
55 -32 62 -29 14 5 69 85 69 99 0 8 -31 35 -100 88 -86 66 -125 88 -150 87
-14 0 -76 -33 -137 -74z"/>
<path d="M5583 2858 c-66 -14 -70 -32 -34 -144 17 -52 57 -154 88 -227 l57
-132 -2 -140 c-2 -77 -7 -144 -12 -149 -4 -4 -5 -20 -1 -35 4 -14 6 -43 4 -63
-3 -29 0 -39 17 -48 27 -15 108 -10 122 8 8 9 11 70 10 194 -1 100 2 186 8
192 5 7 8 21 6 31 -3 18 52 187 69 215 3 6 9 23 11 38 3 15 9 31 15 37 5 5 9
17 9 26 0 10 12 40 26 68 31 62 26 85 -24 110 -65 32 -91 35 -101 9 -26 -70
-44 -130 -56 -185 -8 -35 -18 -71 -24 -80 -8 -16 -10 -15 -19 7 -6 14 -14 39
-18 55 -10 39 -11 44 -14 50 -3 6 -2 3 -20 77 -13 58 -40 99 -63 97 -7 -1 -31
-5 -54 -11z"/>
<path d="M846 2839 c-75 -27 -82 -38 -63 -91 29 -82 123 -313 137 -338 13 -24
23 -177 19 -315 -5 -182 -5 -177 16 -185 11 -4 27 -6 35 -5 8 1 34 6 58 10 53
9 57 21 47 163 -13 198 -5 286 35 377 5 11 25 61 46 110 20 50 43 105 51 123
8 18 16 42 19 52 2 11 6 29 8 39 6 25 -18 46 -77 66 -46 15 -50 15 -68 -1 -11
-9 -24 -36 -30 -58 -6 -23 -20 -68 -30 -101 -10 -33 -21 -73 -23 -89 -8 -47
-14 -42 -36 36 -47 159 -65 210 -80 217 -8 5 -36 0 -64 -10z"/>
</g>
</svg>
